<svg width="600" height="150" viewBox="0 0 600 150" fill="none" xmlns="http://www.w3.org/2000/svg" role="img" aria-label="KOS Kigali Online Store logo">
  <defs>
    <linearGradient id="kosGreen" x1="80" y1="20" x2="520" y2="130" gradientUnits="userSpaceOnUse">
      <stop stop-color="#9BE000"/>
      <stop offset="1" stop-color="#6FB000"/>
    </linearGradient>
    <filter id="softShadow" x="-20%" y="-35%" width="140%" height="170%" color-interpolation-filters="sRGB">
      <feDropShadow dx="0" dy="8" stdDeviation="8" flood-color="#000000" flood-opacity=".28"/>
    </filter>
  </defs>
  <path d="M26 136V54C26 23 49 8 94 8h470l-35 84c-14 34-42 44-82 44H26Z" fill="#050505"/>
  <path d="M26 136h421c61 0 92-17 111-63l27-65h-22l-25 60c-16 38-42 50-91 50H26v18Z" fill="url(#kosGreen)"/>
  <g filter="url(#softShadow)">
    <path d="M70 44h24l16 54h92l15-39H108" stroke="url(#kosGreen)" stroke-width="11" stroke-linecap="round" stroke-linejoin="round"/>
    <path d="M111 108h84" stroke="url(#kosGreen)" stroke-width="9" stroke-linecap="round"/>
    <circle cx="125" cy="122" r="12" fill="url(#kosGreen)"/>
    <circle cx="184" cy="122" r="12" fill="url(#kosGreen)"/>
    <circle cx="153" cy="73" r="30" stroke="white" stroke-width="7"/>
    <path d="M123 73h60M153 43v60" stroke="white" stroke-width="6" stroke-linecap="round"/>
    <path d="M134 50c7 6 12 14 12 23s-5 17-12 23M172 50c-7 6-12 14-12 23s5 17 12 23" stroke="white" stroke-width="5" stroke-linecap="round"/>
    <path d="M130 59c7 5 15 7 23 7s16-2 23-7M130 87c7-5 15-7 23-7s16 2 23 7" stroke="white" stroke-width="5" stroke-linecap="round"/>
  </g>
  <text x="232" y="96" font-family="Arial Black, Arial, sans-serif" font-size="92" font-weight="900" letter-spacing="-6" fill="white">K</text>
  <text x="314" y="96" font-family="Arial Black, Arial, sans-serif" font-size="92" font-weight="900" letter-spacing="-6" fill="url(#kosGreen)">O</text>
  <text x="406" y="96" font-family="Arial Black, Arial, sans-serif" font-size="92" font-weight="900" letter-spacing="-6" fill="white">S</text>
  <text x="237" y="120" font-family="Arial, sans-serif" font-size="17" font-weight="800" fill="#EAF7D0">Save Time Buy online</text>
</svg>
